# xmcd CD database file
#
# Track frame offsets:
#	150
#	14747
#	32499
#	50036
#	69678
#	87396
#	114450
#	140415
#	154671
#	171536
#	191811
#	232359
#	240671
#	256664
#	278487
#
# Disc length: 4127 seconds
#
# Revision: 0
# Processed by: cddbd v1.5.2PL0 Copyright (c) Steve Scherf et al.
# Submitted via: CDex 1.70beta2
#
DISCID=da101d0f
DTITLE=Delta Deep - East Coast Live
DYEAR=2018
DGENRE=Blues
TTITLE0=Black Dog
TTITLE1=Bang The Lid
TTITLE2=Miss Me
TTITLE3=Treat Her Like Candy
TTITLE4=Black Coffee
TTITLE5=Burnt Sally/Rock Me Baby
TTITLE6=Whiskey
TTITLE7=Shuffle Sweet
TTITLE8=Private Number
TTITLE9=Bless The Blues
TTITLE10=Mistreated
TTITLE11=Forrest's Drum Solo
TTITLE12=Down In The Delta
TTITLE13=Band Intro
TTITLE14=Feelit
EXTD=YEAR: 2018
EXTT0=
EXTT1=
EXTT2=
EXTT3=
EXTT4=
EXTT5=
EXTT6=
EXTT7=
EXTT8=
EXTT9=
EXTT10=
EXTT11=
EXTT12=
EXTT13=
EXTT14=
PLAYORDER=
